Coordinates
version=1
nRows=32
nColumns=22
inDegrees=yes

Units are S.I. units (second, meters, Newtons, ...)
If the header above contains a line with 'inDegrees', this indicates whether rotational values are in degrees (yes) or radians (no).

endheader
time	pelvis_tilt	pelvis_list	pelvis_rotation	pelvis_tx	pelvis_ty	pelvis_tz	hip_flexion_r	hip_adduction_r	hip_rotation_r	knee_angle_r	ankle_angle_r	subtalar_angle_r	hip_flexion_l	hip_adduction_l	hip_rotation_l	knee_angle_l	ankle_angle_l	subtalar_angle_l	lumbar_extension	lumbar_bending	lumbar_rotation
      1.47000000	    -10.98416316	     -0.51334798	     -4.72999603	     -0.70038006	      0.97028422	      0.10619720	     38.99093907	     -0.59625991	     -2.19427014	    -29.24662772	     14.88064940	      2.97736288	     11.64767321	      2.74519187	     -5.64185763	    -17.24653406	     23.91742124	     -5.44679300	     -0.33587557	      1.17650286	     -1.46523498
      1.48000000	    -10.99333601	     -0.43282406	     -4.71158331	     -0.69711899	      0.96967949	      0.10679215	     39.28413478	     -0.65982642	     -2.22633776	    -28.55107462	     14.87721436	      3.04559685	     11.43083648	      2.81619201	     -5.62290126	    -17.20973016	     24.12515307	     -5.43163560	     -0.39150940	      1.10971646	     -1.53073584
      1.49000000	    -10.94216982	     -0.40390016	     -4.64587413	     -0.69369865	      0.96916593	      0.10730800	     39.48138162	     -0.73549087	     -2.40761587	    -27.85955517	     14.91431177	      3.24482174	     11.15588204	      2.84624196	     -5.55368566	    -17.20909023	     24.36097727	     -5.34767515	     -0.52292762	      1.10477823	     -1.62486528
      1.50000000	    -10.91755135	     -0.33669558	     -4.58716644	     -0.69016587	      0.96855691	      0.10785951	     39.71465018	     -0.84203685	     -2.58359974	    -27.21488458	     14.97073981	      3.28854883	     10.90883493	      2.91535076	     -5.47864370	    -17.21619127	     24.60566871	     -5.30925239	     -0.61273352	      1.05748639	     -1.70103666
      1.51000000	    -10.87499455	     -0.29074904	     -4.49068539	     -0.68647918	      0.96796148	      0.10834938	     39.90760959	     -0.96800370	     -2.84500451	    -26.59383012	     15.03339866	      3.29602307	     10.64676537	      2.96946001	     -5.37730498	    -17.24873128	     24.83859131	     -5.27125215	     -0.71890343	      1.04539891	     -1.83046698
      1.52000000	    -10.83058867	     -0.25061284	     -4.37673900	     -0.68267404	      0.96734275	      0.10885760	     40.08546725	     -1.10145243	     -3.12790986	    -26.00423860	     15.08406019	      3.28037741	     10.39017078	      3.01861948	     -5.24948218	    -17.31048918	     25.08421293	     -5.25112814	     -0.82475315	      1.03827578	     -1.96676362
      1.53000000	    -10.78333304	     -0.22884463	     -4.23532326	     -0.67874431	      0.96671293	      0.10935353	     40.23904435	     -1.23626601	     -3.42537780	    -25.44164312	     15.10974543	      3.26458914	     10.13783662	      3.05123132	     -5.09399178	    -17.40114738	     25.33201005	     -5.24715050	     -0.93233695	      1.05801734	     -2.13147426
      1.54000000	    -10.73346824	     -0.23136149	     -4.07105733	     -0.67467827	      0.96607600	      0.10986675	     40.36251216	     -1.36048800	     -3.72124212	    -24.89866806	     15.10893970	      3.26303916	      9.88809925	      3.05703444	     -4.91938382	    -17.51937265	     25.57252644	     -5.26300693	     -1.04015167	      1.10912556	     -2.32580960
      1.55000000	    -10.68810735	     -0.24363052	     -3.88663511	     -0.67050855	      0.96539723	      0.11039607	     40.47472909	     -1.48294177	     -3.99203282	    -24.38939328	     15.08903496	      3.28733617	      9.65910280	      3.05297365	     -4.70952179	    -17.68173637	     25.84279497	     -5.28987578	     -1.14270269	      1.17286680	     -2.51757963
      1.56000000	    -10.64447043	     -0.27387679	     -3.68410304	     -0.66620662	      0.96469617	      0.11095844	     40.56025419	     -1.59233752	     -4.23137332	    -23.89788264	     15.05564288	      3.32771011	      9.43756104	      3.02649838	     -4.48865364	    -17.87037347	     26.11131240	     -5.32664978	     -1.23999167	      1.25920539	     -2.73560021
      1.57000000	    -10.60562637	     -0.31263939	     -3.46856486	     -0.66178991	      0.96394840	      0.11155807	     40.63513796	     -1.69676954	     -4.44630625	    -23.44284759	     15.01469431	      3.36545505	      9.22857642	      2.98867915	     -4.24163518	    -18.08763823	     26.40472852	     -5.35601844	     -1.33053135	      1.35465142	     -2.94109145
      1.58000000	    -10.56952383	     -0.36196782	     -3.24091447	     -0.65723600	      0.96316752	      0.11220590	     40.68737139	     -1.79028171	     -4.62529685	    -23.01231748	     14.97287872	      3.39055322	      9.02328748	      2.93398053	     -3.99218289	    -18.32253815	     26.69288504	     -5.37724578	     -1.41291643	      1.46282307	     -3.15938247
      1.59000000	    -10.53203602	     -0.42188428	     -3.00362616	     -0.65254509	      0.96235761	      0.11291542	     40.71481628	     -1.87233298	     -4.77790643	    -22.61246102	     14.93349904	      3.39101173	      8.81527644	      2.86106880	     -3.74237983	    -18.57229755	     26.96898761	     -5.38241478	     -1.49173809	      1.58085435	     -3.38757875
      1.60000000	    -10.50534765	     -0.46929191	     -2.77620928	     -0.64771494	      0.96147757	      0.11370358	     40.74949893	     -1.95317825	     -4.89958904	    -22.27244345	     14.89404881	      3.36987909	      8.60493772	      2.79540033	     -3.48655476	    -18.81403006	     27.27810130	     -5.36204634	     -1.55100697	      1.68205008	     -3.58157818
      1.61000000	    -10.48105425	     -0.51570027	     -2.54267431	     -0.64274065	      0.96055267	      0.11454369	     40.77146861	     -2.03225523	     -5.00154511	    -21.98128918	     14.86383400	      3.32477738	      8.38722482	      2.72349719	     -3.23748364	    -19.05476782	     27.57320131	     -5.31442549	     -1.60048237	      1.78143436	     -3.77192276
      1.62000000	    -10.46130327	     -0.54861359	     -2.31502934	     -0.63761038	      0.95957117	      0.11546510	     40.79237808	     -2.11402851	     -5.08621267	    -21.75673523	     14.84763851	      3.26537629	      8.15562727	      2.65652076	     -2.99729537	    -19.27986044	     27.86704613	     -5.24097182	     -1.63547192	      1.86090107	     -3.94237145
      1.63000000	    -10.43758224	     -0.56968298	     -2.09495787	     -0.63233669	      0.95855264	      0.11646269	     40.79848414	     -2.19347389	     -5.14319598	    -21.59157296	     14.84029390	      3.18125073	      7.90726160	      2.59220684	     -2.77241594	    -19.50164340	     28.12974249	     -5.11564040	     -1.67013228	      1.92565478	     -4.10515005
      1.64000000	    -10.42809689	     -0.56061089	     -1.88932414	     -0.62688972	      0.95745871	      0.11754084	     40.82519149	     -2.29012680	     -5.20221515	    -21.51934084	     14.85606022	      3.12790649	      7.64141600	      2.55045360	     -2.55752767	    -19.68239068	     28.40058249	     -4.99383232	     -1.67555289	      1.95183146	     -4.23005210
      1.65000000	    -10.41786232	     -0.53918297	     -1.68938358	     -0.62129692	      0.95633162	      0.11869470	     40.84794608	     -2.38733166	     -5.24413242	    -21.53180537	     14.86477348	      3.08291231	      7.35454393	      2.51145035	     -2.34801841	    -19.84533457	     28.64080325	     -4.82992371	     -1.67691561	      1.96393091	     -4.34941695
      1.66000000	    -10.41016407	     -0.50027051	     -1.49574799	     -0.61555848	      0.95518157	      0.11993543	     40.86541043	     -2.48922232	     -5.28102088	    -21.62185643	     14.84969796	      3.04783509	      7.04760833	      2.47903947	     -2.14855348	    -19.98341495	     28.85734809	     -4.61781097	     -1.67071026	      1.95098953	     -4.45018251
      1.67000000	    -10.40775194	     -0.44786883	     -1.31217728	     -0.60967635	      0.95401493	      0.12125845	     40.88810510	     -2.58966766	     -5.30497768	    -21.80873207	     14.77507943	      3.01872127	      6.72284454	      2.44947179	     -1.95555766	    -20.09727742	     29.04719965	     -4.37266481	     -1.65489963	      1.92339323	     -4.53494426
      1.68000000	    -10.41243298	     -0.38947611	     -1.14131813	     -0.60366877	      0.95284908	      0.12268515	     40.91949888	     -2.67850046	     -5.31909235	    -22.09449521	     14.59362960	      2.98086570	      6.38755485	      2.41257765	     -1.77057956	    -20.19453539	     29.20628088	     -4.09809960	     -1.62921819	      1.88604343	     -4.60219262
      1.69000000	    -10.42475094	     -0.33208804	     -0.98239095	     -0.59754084	      0.95170497	      0.12421109	     40.96452218	     -2.75037905	     -5.33299382	    -22.48819706	     14.27188176	      2.91548583	      6.04788850	      2.36138674	     -1.59313271	    -20.28434113	     29.32767824	     -3.79394828	     -1.59523711	      1.84946337	     -4.65317214
      1.70000000	    -10.44446271	     -0.28012657	     -0.83806763	     -0.59130299	      0.95060389	      0.12584032	     41.02756287	     -2.79937075	     -5.34614946	    -22.99052981	     13.79113474	      2.81706670	      5.71110933	      2.29165386	     -1.42392571	    -20.37973627	     29.40754614	     -3.48420112	     -1.55353656	      1.81899816	     -4.68979346
      1.71000000	    -10.47237712	     -0.24594615	     -0.70819222	     -0.58494378	      0.94955481	      0.12758222	     41.11979950	     -2.81934216	     -5.40454654	    -23.61361533	     13.18431233	      2.51839846	      5.39294599	      2.18635833	     -1.28675698	    -20.51042064	     29.45174968	     -2.94543730	     -1.50076180	      1.80809574	     -4.69242927
      1.72000000	    -10.50363480	     -0.21508049	     -0.60118841	     -0.57851426	      0.94861552	      0.12945046	     41.22994727	     -2.80877892	     -5.43023978	    -24.31818481	     12.38011090	      2.24937741	      5.08682505	      2.07256700	     -1.11994479	    -20.66708442	     29.43066452	     -2.55839845	     -1.45036818	      1.79519999	     -4.67625301
      1.73000000	    -10.53354421	     -0.19679912	     -0.51991844	     -0.57198450	      0.94779490	      0.13143045	     41.36052979	     -2.76305380	     -5.44561972	    -25.10824413	     11.50022077	      1.91091078	      4.79603503	      1.93508575	     -0.98710772	    -20.86446173	     29.38074273	     -2.14993873	     -1.40546898	      1.80160659	     -4.65956968
      1.74000000	    -10.55750973	     -0.20223732	     -0.47096461	     -0.56535966	      0.94713529	      0.13354446	     41.49553356	     -2.66741183	     -5.45032294	    -25.94576254	     10.57774073	      1.55251605	      4.52227737	      1.77069657	     -0.83136017	    -21.12045303	     29.24531130	     -1.73574202	     -1.37142735	      1.83022027	     -4.58161664
      1.75000000	    -10.56621442	     -0.22646176	     -0.46060149	     -0.55859988	      0.94664939	      0.13580472	     41.62336284	     -2.52704071	     -5.45498489	    -26.82072792	      9.71333191	      1.17134510	      4.25116647	      1.57859040	     -0.70630005	    -21.42682442	     29.06635304	     -1.29594139	     -1.35429545	      1.87744720	     -4.48707972
      1.76000000	    -10.55405327	     -0.27838708	     -0.47859083	     -0.55172845	      0.94636357	      0.13817388	     41.71200157	     -2.33453653	     -5.42573244	    -27.68274561	      8.94968059	      0.84501940	      3.98630698	      1.36080364	     -0.54657990	    -21.80098555	     28.81081042	     -0.86520970	     -1.36594159	      1.95710028	     -4.34522952
      1.77000000	    -10.51278589	     -0.34863190	     -0.52204943	     -0.54467259	      0.94626561	      0.14065107	     41.75543282	     -2.11512657	     -5.43704239	    -28.54577676	      8.34436240	      0.48763335	      3.71027676	      1.11610207	     -0.43330018	    -22.22723643	     28.51750299	     -0.35206454	     -1.40325901	      2.05750096	     -4.20711577
      1.78000000	    -10.44958146	     -0.44420456	     -0.57823539	     -0.53746293	      0.94635713	      0.14318997	     41.72743938	     -1.86130539	     -5.44090845	    -29.34846937	      7.88620060	      0.17732216	      3.43960700	      0.85027327	     -0.27916716	    -22.72283390	     28.15371741	      0.17168611	     -1.46132435	      2.19066618	     -4.05059876
